<?xml version="1.0" encoding="iso-8859-1"?>
<!-- Generator: Adobe Illustrator 19.0.0, SVG Export Plug-In . SVG Version: 6.00 Build 0)  -->
<svg fill="#3A5685" xmlns="http://www.w3.org/2000/svg" xmlns:xlink="http://www.w3.org/1999/xlink" version="1.1" id="Capa_1" x="0px" y="0px" viewBox="0 0 509.277 509.277" style="enable-background:new 0 0 509.277 509.277;" xml:space="preserve" width="512" height="512">
<g>
	<path d="M266.184,235.889h-24.09c-14.036,0-25.455,11.419-25.455,25.455v64.545h75v-64.545   C291.639,247.308,280.22,235.889,266.184,235.889z M276.639,310.889h-45v-49.545c0-5.765,4.69-10.455,10.455-10.455h24.09   c5.765,0,10.455,4.69,10.455,10.455V310.889z"/>
	<path d="M254.139,179.514c-12.406,0-22.5,10.093-22.5,22.5s10.094,22.5,22.5,22.5s22.5-10.093,22.5-22.5   S266.545,179.514,254.139,179.514z M254.139,209.514c-4.136,0-7.5-3.364-7.5-7.5s3.364-7.5,7.5-7.5s7.5,3.364,7.5,7.5   S258.274,209.514,254.139,209.514z"/>
	<polygon points="247.139,23.027 247.139,129.014 262.139,129.014 262.139,23.027 272.979,30.254 281.299,17.773 254.639,0    227.979,17.773 236.299,30.254  "/>
	<polygon points="108.942,83.007 106.001,68.298 74.582,74.582 68.298,106.001 83.007,108.943 85.562,96.168 160.505,171.112    171.112,160.505 96.169,85.562  "/>
	<polygon points="129.014,262.139 129.014,247.139 23.027,247.139 30.254,236.299 17.773,227.979 0,254.639 17.773,281.299    30.254,272.979 23.027,262.139  "/>
	<polygon points="160.505,338.166 85.562,413.109 83.007,400.334 68.298,403.276 74.582,434.695 106.001,440.979 108.942,426.271    96.169,423.716 171.112,348.772  "/>
	<polygon points="262.139,486.25 262.139,380.264 247.139,380.264 247.139,486.25 236.299,479.023 227.979,491.504 254.639,509.277    281.299,491.504 272.979,479.023  "/>
	<polygon points="423.715,413.109 348.772,338.166 338.165,348.772 413.109,423.716 400.335,426.271 403.276,440.979    434.695,434.695 440.979,403.276 426.271,400.334  "/>
	<polygon points="491.504,227.979 479.023,236.299 486.25,247.139 380.264,247.139 380.264,262.139 486.25,262.139 479.023,272.979    491.504,281.299 509.277,254.639  "/>
	<polygon points="348.772,171.112 423.715,96.168 426.271,108.943 440.979,106.001 434.695,74.582 403.276,68.298 400.335,83.007    413.109,85.562 338.165,160.505  "/>
</g>















</svg>
