<svg id="Capa_1" data-name="Capa 1" xmlns="http://www.w3.org/2000/svg" viewBox="0 0 420.81 331.2"><defs><style>.cls-1{fill:#3a5685;}</style></defs><title>camara</title><path class="cls-1" d="M406.8,51.6a45.25,45.25,0,0,0-33.2-14H307.2v-.8a35.9,35.9,0,0,0-10.8-26A36.61,36.61,0,0,0,270.4,0h-120a36.88,36.88,0,0,0-37.2,36.56v1h-66A45.25,45.25,0,0,0,14,51.6,47.56,47.56,0,0,0,0,84.8V284a45.25,45.25,0,0,0,14,33.2,47.56,47.56,0,0,0,33.2,14H373.6a45.25,45.25,0,0,0,33.2-14,47.56,47.56,0,0,0,14-33.2V84.8A45.25,45.25,0,0,0,406.8,51.6ZM400,284h-.4a26,26,0,0,1-25.9,26H47.2a26,26,0,0,1-26-25.9V84.8a26,26,0,0,1,25.9-26h77.3a10.76,10.76,0,0,0,10.8-10.72V36.4a15.06,15.06,0,0,1,14.5-15.6c.37,0,.73,0,1.1,0H270.4A15.06,15.06,0,0,1,286,35.3c0,.37,0,.73,0,1.1V48a10.76,10.76,0,0,0,10.72,10.8H374a26,26,0,0,1,26,25.9V284Z" transform="translate(0 0)"/><path class="cls-1" d="M210.4,86A98.33,98.33,0,1,0,280,114.8,98.33,98.33,0,0,0,210.4,86Zm54.4,153.2a77.25,77.25,0,0,1-108.8,0,76.47,76.47,0,0,1-22.4-54.4A78.15,78.15,0,0,1,156,130.4,76.47,76.47,0,0,1,210.4,108a78.15,78.15,0,0,1,54.4,22.4,76.47,76.47,0,0,1,22.4,54.4C287.6,206,278.8,225.2,264.8,239.2Z" transform="translate(0 0)"/><circle class="cls-1" cx="352.8" cy="105.2" r="19.6"/></svg>