<svg id="Capa_1" data-name="Capa 1" xmlns="http://www.w3.org/2000/svg" viewBox="0 0 512 490.66"><defs><style>.cls-1{fill:#3a5685;}</style></defs><title>like</title><path class="cls-1" d="M512,293.33a47.41,47.41,0,0,0-13.89-33.58A53,53,0,0,0,511.77,219c-2.5-27.12-26.93-48.37-55.64-48.37H324.35c6.53-19.82,17-56.15,17-85.33C341.35,39.06,302,0,277.35,0c-22.14,0-38,12.48-38.65,13a10.69,10.69,0,0,0-4,8.34V93.68l-61.46,133.1-2.54,1.3V224A10.67,10.67,0,0,0,160,213.33H53.33A53.39,53.39,0,0,0,0,266.66V437.33a53.39,53.39,0,0,0,53.33,53.33h64a53.46,53.46,0,0,0,50.2-35.26c17.75,9.13,41.64,13.93,56.47,13.93H419.82c23.23,0,43.56-15.66,48.34-37.25A48.21,48.21,0,0,0,464.32,400a47.8,47.8,0,0,0,21.35-64A47.8,47.8,0,0,0,512,293.33Zm-45,26.33A10.66,10.66,0,0,0,460.9,338a26.31,26.31,0,0,1,8.43,19.31,26.59,26.59,0,0,1-23.63,26.33A10.66,10.66,0,0,0,439.6,402a26.4,26.4,0,0,1,7.72,25.45C444.7,439.38,433.13,448,419.82,448H224c-17.32,0-46.38-8.13-56.45-18.22a10.68,10.68,0,0,0-18.22,7.55,32,32,0,0,1-32,32h-64a32,32,0,0,1-32-32V266.66a32,32,0,0,1,32-32h96v10.67a10.73,10.73,0,0,0,5.08,9.09,10.91,10.91,0,0,0,10.37.45l21.33-10.67a10.71,10.71,0,0,0,4.91-5.06l64-138.66A10.84,10.84,0,0,0,256,96V27.11a45,45,0,0,1,21.31-5.78c11.67,0,42.67,29.06,42.67,64,0,37.55-20.44,91.67-20.63,92.2a10.65,10.65,0,0,0,6.12,13.76,10.5,10.5,0,0,0,3.88.71h146.8c17.79,0,32.89,12.73,34.39,29a31.89,31.89,0,0,1-15.19,30.19,10.68,10.68,0,0,0,.72,18.58,26.41,26.41,0,0,1-9,49.9Z" transform="translate(0 0)"/><path class="cls-1" d="M160,234.66a10.67,10.67,0,0,0-10.67,10.67v192a10.67,10.67,0,1,0,21.34,0h0v-192A10.67,10.67,0,0,0,160,234.66Z" transform="translate(0 0)"/></svg>