<svg id="Capa_1" data-name="Capa 1" xmlns="http://www.w3.org/2000/svg" viewBox="0 0 387.2 400.8"><defs><style>.cls-1{fill:#3a5685;}</style></defs><title>megafono</title><path class="cls-1" d="M363.7,0a23.47,23.47,0,0,0-23.5,23.44V42.9L316.7,54.4A620.62,620.62,0,0,1,190.9,100,625.12,625.12,0,0,1,41.7,118.1,41.74,41.74,0,0,0,0,159.8v62.9a41.74,41.74,0,0,0,41.7,41.7c11.9,0,23.7.4,35.6,1.1A285.28,285.28,0,0,0,51.9,383.1v1.1a16.55,16.55,0,0,0,16.52,16.6H127.7a16.55,16.55,0,0,0,16.6-16.52v-.08a17.19,17.19,0,0,0-1.4-6.7,128.24,128.24,0,0,1-11.1-53.9h29.1a7,7,0,0,0,3.8-1.1l50.7-33.2a621.21,621.21,0,0,1,101.3,39l23.5,11.5v19.4a23.5,23.5,0,0,0,47,0V23.5A23.59,23.59,0,0,0,363.7,0ZM14,222.7V160a27.7,27.7,0,0,1,27.7-27.7,640,640,0,0,0,143.9-16.5V266.9c-20.7-4.7-41.5-8.5-62.5-11.2a634.82,634.82,0,0,0-81.4-5.3A27.76,27.76,0,0,1,14,222.7ZM129.9,385.5a2.53,2.53,0,0,1-2.2,1.2H68.5a2.66,2.66,0,0,1-2.6-2.6V383A274.51,274.51,0,0,1,92.2,266.5c12.2,1,24.2,2.3,36.2,4A142.76,142.76,0,0,0,130,383,2.27,2.27,0,0,1,129.9,385.5Zm28.9-76.1H132.6a126,126,0,0,1,10.2-36.7c16.1,2.7,32.2,5.9,48.2,9.8,2.2.5,4.3,1.1,6.5,1.7Zm164.1,6.2a636.92,636.92,0,0,0-123.3-45.3V112.4A635.13,635.13,0,0,0,322.9,67.1l17.3-8.5V324.1Zm50.3,43.5a9.5,9.5,0,0,1-19,0V23.5a9.5,9.5,0,0,1,19,0Z" transform="translate(0 0)"/></svg>