<svg id="Capa_1" data-name="Capa 1" xmlns="http://www.w3.org/2000/svg" viewBox="0 0 512 452"><defs><style>.cls-1{fill:#f2f2f2;}</style></defs><title>my-business</title><path class="cls-1" d="M447.6,0H64.4L0,184.2v17.5a75.34,75.34,0,0,0,30,60.1V452H482V261.8a75.19,75.19,0,0,0,30-60.1V184.2Zm28.3,171.8H389.1L364.3,30h62ZM30,201.8h90.5a45.25,45.25,0,0,1-90.5,0Zm211,0a45.3,45.3,0,0,1-90.6,0Zm-87.7-30L178.1,30H241V171.8Zm117.7,0V30h62.9l24.8,141.8Zm90.5,30a45.25,45.25,0,0,1-90.5,0ZM85.6,30h62L122.8,171.8H36.1ZM452,422H60V275.4a74.9,74.9,0,0,0,75.5-28.6,75.3,75.3,0,0,0,120.6,0,75.3,75.3,0,0,0,120.6,0A75.18,75.18,0,0,0,437,277a70.93,70.93,0,0,0,15.3-1.6V422ZM436.8,247a45.32,45.32,0,0,1-45.3-45.3H482A45.3,45.3,0,0,1,436.8,247Z"/></svg>