<svg id="Capa_1" data-name="Capa 1" xmlns="http://www.w3.org/2000/svg" viewBox="0 0 115.4 73.7"><defs><style>.cls-1{fill:#3a5685;}</style></defs><title>ordenador-portatil</title><path class="cls-1" d="M11,67h93.3a3.54,3.54,0,0,0,3.5-3.5V3.5A3.54,3.54,0,0,0,104.3,0H11A3.54,3.54,0,0,0,7.5,3.5v60A3.54,3.54,0,0,0,11,67ZM10.5,3.5a.47.47,0,0,1,.44-.5H104.3a.47.47,0,0,1,.5.44V63.5a.47.47,0,0,1-.44.5H11a.47.47,0,0,1-.5-.44V3.5ZM115.4,69.6v2.8a1.32,1.32,0,0,1-1.3,1.3H1.3A1.32,1.32,0,0,1,0,72.4V69.6H47.4A1.92,1.92,0,0,0,49.2,71h17A1.83,1.83,0,0,0,68,69.6Z"/></svg>