<svg id="Capa_1" data-name="Capa 1" xmlns="http://www.w3.org/2000/svg" viewBox="0 0 272 496"><defs><style>.cls-1{fill:#3a5685;}</style></defs><title>smartphone</title><g id="Smartphone"><path class="cls-1" d="M232,0H40A40,40,0,0,0,0,40V456a40,40,0,0,0,40,40H232a40,40,0,0,0,40-40V40A40,40,0,0,0,232,0ZM190.24,16l-4.8,24H86.56l-4.8-24ZM256,456a24,24,0,0,1-24,24H40a24,24,0,0,1-24-24h0V40A24,24,0,0,1,40,16H65.44l6.71,33.57A8,8,0,0,0,80,56H192a8,8,0,0,0,7.85-6.43L206.56,16H232a24,24,0,0,1,24,24Z"/></g></svg>