<svg id="Capa_1" data-name="Capa 1" xmlns="http://www.w3.org/2000/svg" viewBox="0 0 368.96 303"><defs><style>.cls-1{fill:#3a5685;}.cls-2{fill:#989898;}.cls-3{fill:#979797;}.cls-4{fill:#fefefe;}</style></defs><title>icono2</title><path class="cls-1" d="M369,204.08v3c-1.19,4.35-.78,8.85-1.23,13.27-2.55,24.58-13.11,45.94-27.44,65.45-21.24,28.93-49.78,47.52-84.29,57.07-8.08,2.24-16.44,2-24.69,2.71-1.12.1-2.34-.36-3.35.5h-2a67,67,0,0,0-18,0h-3c-4.35-1.19-8.85-.75-13.27-1.24-26.5-2.91-49.28-14.58-69.8-30.77-26.15-20.63-43.2-47.51-52.35-79.5-2.4-8.4-2.35-17.06-3.07-25.64a2.72,2.72,0,0,0-.51-1.85v-3a72.8,72.8,0,0,0,0-19v-3c1.19-4.35.75-8.85,1.24-13.27,2.92-26.5,14.57-49.29,30.77-69.8,20.86-26.43,48.08-43.57,80.46-52.61,8.09-2.25,16.43-2.08,24.68-2.82,1-.09,2,.26,2.85-.5h2a72.8,72.8,0,0,0,19,0h1c5,1,10.19.68,15.26,1.24,26.5,2.92,49.29,14.58,69.81,30.77,26.3,20.74,43.39,47.79,52.49,80,2.32,8.24,2.2,16.74,2.94,25.16.08,1-.26,2,.5,2.85v2A72.65,72.65,0,0,0,369,204.08Z" transform="translate(-0.08 -43.08)"/><path class="cls-2" d="M227,43.08a38,38,0,0,1-19,0Z" transform="translate(-0.08 -43.08)"/><path class="cls-3" d="M.08,142.08a37.75,37.75,0,0,1,0,19Z" transform="translate(-0.08 -43.08)"/><path class="cls-2" d="M303.08,161.08a38,38,0,0,1,0-19Z" transform="translate(-0.08 -43.08)"/><path class="cls-2" d="M142.08,303.08a33.35,33.35,0,0,1,18,0Z" transform="translate(-0.08 -43.08)"/><path class="cls-1" d="M342.49,210.47c-7.76,55.66-50.57,108.94-129,111.22C168.22,323,105.43,292.32,92.28,222.44a22.62,22.62,0,0,1,5.1-9.57c22.24-26.54,46.53-51,76.1-69.31,27.19-16.84,57-20.9,88-13.07,23.62,6,38.74,25.12,38.6,47.39v2c-.18,2-.06,4.45-2.23,5.16-2,.63-3.21-1.37-4.36-2.77-4.92-6-10.51-11.25-17.86-14.06-13.77-5.27-27.13-5.1-39.13,4.52-7.47,6-11.35,14.28-12.78,23.61-1.94,12.69.14,24.57,8.34,34.86,5.88,7.39,14.06,11.25,22.9,13.32,19.45,4.55,38.38,3,56.13-6.8a78.39,78.39,0,0,0,25.41-22.89C337.93,212.78,339.09,210,342.49,210.47Z" transform="translate(-0.08 -43.08)"/><path class="cls-4" d="M342.49,210.47c-4.76,5.3-8.55,11.39-13.75,16.37-23.23,22.22-50.45,27.09-80.38,17.74-17.55-5.49-27-20-27.41-39.35-.43-18.32,8.39-33.38,23.22-39.68,17.1-7.26,38.11-1.12,50.43,14.73.92,1.18,1.76,2.42,2.67,3.68,1.65-.57.89-2,.89-2.9.18-26.1-15-44.58-42-49.83-36.2-7.07-68.66,1.88-97.36,24.62-24.75,19.6-47.24,41.53-66.56,66.59-6.47-29.91-4.43-59.25,9.37-86.61,18.33-36.32,48.64-59.23,88-67.4,55.11-11.44,98,10.43,131.48,53.75,10.74,13.88,19.14,28.71,22.29,46.2A104.69,104.69,0,0,1,342.49,210.47Z" transform="translate(-0.08 -43.08)"/></svg>